<?xml version="1.0" encoding="UTF-8" standalone="no"?>
<!DOCTYPE svg PUBLIC "-//W3C//DTD SVG 1.1//EN" "http://www.w3.org/Graphics/SVG/1.1/DTD/svg11.dtd">
<svg version="1.1" xmlns="http://www.w3.org/2000/svg" xmlns:xlink="http://www.w3.org/1999/xlink" preserveAspectRatio="xMidYMid meet" viewBox="0 0 640 640" width="640" height="640"><defs><path d="M133.33 213.33C108.61 213.33 87.5 229.95 81.62 253.87C81.59 253.96 81.55 254.06 81.52 254.15C73.72 280.51 11.27 491.36 3.46 517.72C2.62 520.6 2.76 523.69 3.88 526.47C12.06 546.84 31.46 560 53.33 560C98.67 560 461.33 560 506.67 560C530.55 560 551.32 544.19 557.84 521.32C557.96 521.03 558.06 520.74 558.15 520.44C566.07 496.71 629.45 306.88 637.37 283.15C637.63 282.4 637.8 281.62 637.92 280.83C639.31 275.9 640 271.25 640 266.67C640 237.25 616.08 213.33 586.67 213.33C496 213.33 178.67 213.33 133.33 213.33Z" id="b7nGgfYrT"></path><path d="M13.35 356.89C19.17 356.89 24.43 353.07 26.12 347.35C29.09 337.31 52.86 257.04 55.83 247.01C55.87 246.85 55.91 246.71 55.95 246.55C65.07 211.29 96.88 186.67 133.33 186.67C174.42 186.67 503.13 186.67 544.22 186.67C548.55 186.67 552.62 184.56 555.12 181.02C557.61 177.49 558.23 172.96 556.78 168.87C549.23 147.62 529.09 133.33 506.67 133.33C490.15 133.33 407.54 133.33 258.85 133.33C229.2 103.68 212.72 87.2 209.43 83.91C206.93 81.41 203.54 80 200 80C185.33 80 68 80 53.33 80C23.92 80 0 103.92 0 133.33C0 154.36 0 322.53 0 343.56C0 350.18 4.87 355.79 11.42 356.75C12.07 356.85 12.71 356.89 13.35 356.89Z" id="bUGwmfLNV"></path></defs><g><g><g><use xlink:href="#b7nGgfYrT" opacity="1" fill="#007bff" fill-opacity="1"></use><g><use xlink:href="#b7nGgfYrT" opacity="1" fill-opacity="0" stroke="#000000" stroke-width="1" stroke-opacity="0"></use></g></g><g><use xlink:href="#bUGwmfLNV" opacity="1" fill="#007bff" fill-opacity="1"></use><g><use xlink:href="#bUGwmfLNV" opacity="1" fill-opacity="0" stroke="#000000" stroke-width="1" stroke-opacity="0"></use></g></g></g></g></svg>